<?xml version="1.0" encoding="UTF-8"?>
<svg id="Layer_1" data-name="Layer 1" xmlns="http://www.w3.org/2000/svg" viewBox="0 0 379.37 354.72">
  <defs>
    <style>
      .cls-1 {
        fill: #003666;
      }

      .cls-2 {
        fill: #fdbc08;
      }
    </style>
  </defs>
  <circle class="cls-2" cx="189.69" cy="174.04" r="81.87"/>
  <g>
    <polyline class="cls-1" points="140.32 354.72 239.05 354.72 239.05 340.72 140.32 340.72"/>
    <path class="cls-1" d="m151.12,308.68v-50.03l-3.79-1.96c-14.9-7.68-27.46-19.31-36.28-33.49-8.82-14.18-13.91-30.88-13.91-48.82,0-19.18,5.82-36.95,15.8-51.72,9.98-14.77,24.13-26.52,40.73-33.53l-5.45-12.89c-19.13,8.09-35.39,21.59-46.88,38.59-11.49,16.99-18.2,37.53-18.2,59.56,0,20.6,5.87,39.9,16.02,56.21,10.15,16.32,24.58,29.68,41.74,38.53l3.21-6.22h-7v45.77h14,0Z"/>
    <polyline class="cls-1" points="117 315.68 262.37 315.68 262.37 301.68 117 301.68"/>
    <path class="cls-1" d="m293.11,315.68h53.32c4.53,0,8.88-.92,12.83-2.59,5.92-2.51,10.94-6.67,14.49-11.93,3.55-5.25,5.63-11.63,5.63-18.43v-145.47c0-23.47-12.53-45.14-32.86-56.87L222.53,8.8C212.36,2.93,201.02,0,189.69,0c-11.33,0-22.68,2.93-32.84,8.8L32.85,80.39C12.53,92.12,0,113.79,0,137.26v184.51c0,4.53.92,8.88,2.59,12.83,2.51,5.92,6.67,10.94,11.93,14.49,5.25,3.55,11.63,5.63,18.43,5.63h76.64v-14H32.95c-2.64,0-5.11-.53-7.37-1.49-3.39-1.43-6.3-3.84-8.34-6.87-2.04-3.03-3.23-6.64-3.23-10.59v-184.51c0-18.46,9.85-35.51,25.85-44.75L163.85,20.92c8-4.62,16.92-6.92,25.84-6.92,8.92,0,17.84,2.31,25.84,6.92l123.99,71.59c16,9.23,25.85,26.29,25.85,44.75v145.47c0,2.64-.53,5.11-1.49,7.37-1.43,3.39-3.84,6.3-6.87,8.34-3.03,2.04-6.64,3.23-10.59,3.23h-53.32v14h0Z"/>
    <path class="cls-1" d="m222.81,129.97c6.68,5.03,12.18,11.55,16.01,19.05,3.82,7.5,5.98,15.98,5.98,25,0,7.63-1.54,14.86-4.33,21.45-4.18,9.88-11.18,18.31-19.98,24.26-8.81,5.94-19.37,9.41-30.81,9.41-7.63,0-14.86-1.54-21.45-4.33-9.88-4.18-18.31-11.18-24.26-19.98-5.94-8.81-9.41-19.37-9.41-30.81,0-7.63,1.54-14.86,4.33-21.45,4.18-9.88,11.18-18.31,19.98-24.26,8.81-5.94,19.37-9.41,30.81-9.41h.02s7,0,7,0v-44.05h-7v7c12.79,0,24.94,2.59,36.01,7.27,16.59,7.02,30.74,18.76,40.72,33.53,9.98,14.78,15.8,32.54,15.8,51.72,0,17.96-5.09,34.66-13.91,48.84-8.82,14.18-21.38,25.81-36.27,33.49l-3.79,1.96v50h14v-45.74h-7l3.21,6.22c17.16-8.85,31.59-22.22,41.74-38.54,10.15-16.32,16.02-35.62,16.02-56.24,0-29.39-11.94-56.07-31.2-75.32-19.26-19.27-45.93-31.21-75.32-31.2h-7v44.05h7v-7h-.02c-9.52,0-18.63,1.93-26.91,5.43-12.41,5.25-22.95,14.01-30.4,25.03-7.45,11.02-11.81,24.36-11.81,38.65,0,9.52,1.93,18.63,5.43,26.91,5.25,12.41,14.01,22.95,25.03,30.4,11.02,7.45,24.36,11.81,38.65,11.81,9.52,0,18.63-1.93,26.91-5.43,12.41-5.25,22.95-14.01,30.4-25.03,7.45-11.02,11.81-24.36,11.81-38.65,0-11.27-2.71-21.95-7.51-31.36-4.8-9.41-11.69-17.57-20.06-23.88l-8.42,11.18h0Z"/>
  </g>
</svg>